<?xml version="1.0" encoding="UTF-8"?>
<svg version="1.1" viewBox="0 0 512 512" xmlns="http://www.w3.org/2000/svg">
<path transform="translate(238,125)" d="m0 0c7.0351 5.6372 12.922 11.545 18 19 2.2404-2.1725 4.4326-4.2994 6.3984-6.7266 14.11-17.405 37.019-28.899 59.059-31.992 30.729-2.4394 57.702 4.6338 81.543 24.719 17.513 15.297 29.485 38.887 32 62 1.3911 23.084-3.0187 44.104-15 64-0.43167 0.73315-0.86335 1.4663-1.3081 2.2217-9.4078 15.939-19.886 30.888-32.532 44.442-1.8032 1.9499-3.5333 3.9339-5.2617 5.9492-4.5472 5.2124-9.4363 10.07-14.336 14.949-0.90299 0.90686-1.806 1.8137-2.7363 2.748-5.1139 5.1065-10.326 10.003-15.826 14.689-1.0832 0.94918-2.1653 1.8996-3.2461 2.8516-8.2828 7.2239-16.867 13.97-25.654 20.568-1.9831 1.4929-3.9567 2.9975-5.9277 4.5063-14.936 11.39-30.267 22.312-46.359 32.012-0.83112 0.50209-1.6622 1.0042-2.5186 1.5215-7.0287 4.1532-7.0287 4.1532-10.294 4.541-1.8208-0.78174-1.8208-0.78174-3.6953-2.0703-0.70641-0.47744-1.4128-0.95487-2.1406-1.4468-0.75539-0.53061-1.5108-1.0612-2.2891-1.6079-0.79406-0.54479-1.5881-1.0896-2.4062-1.6509-2.5011-1.7254-4.9866-3.4715-7.4688-5.2241-0.7628-0.53561-1.5256-1.0712-2.3115-1.623-15.369-10.826-30.265-22.321-44.688-34.377-0.51369-0.42877-1.0274-0.85755-1.5566-1.2993-6.4165-5.3642-12.751-10.798-18.932-16.435-1.3377-1.2067-2.6809-2.4082-4.0583-3.5693-6.807-5.783-13.069-12.126-19.38-18.438-1.9976-1.9954-4.0031-3.9827-6.009-5.9697-7.155-7.1236-13.849-14.32-20.064-22.289-1.0355-1.2672-2.0742-2.5318-3.1172-3.793-7.1345-8.7454-13.67-17.787-19.883-27.207-0.57259-0.85441-0.57259-0.85441-1.1567-1.7261-14.468-21.693-19.761-46.87-15.589-72.649 5.5525-26.977 20.106-49.727 43-65.266 35.564-23.07 82.087-20.264 115.75 4.6406z" fill="#E10025"/>
<path transform="translate(423,157)" d="m0 0c12.361 15.732 13.668 39.536 11.531 58.648-1.9489 14.56-6.9571 27.774-14.531 40.352-0.43167 0.73315-0.86335 1.4663-1.3081 2.2217-9.4078 15.939-19.886 30.888-32.532 44.442-1.8032 1.9499-3.5333 3.9339-5.2617 5.9492-4.5472 5.2124-9.4363 10.07-14.336 14.949-1.3545 1.3603-1.3545 1.3603-2.7363 2.748-5.1139 5.1065-10.326 10.003-15.826 14.689-1.0832 0.94918-2.1653 1.8996-3.2461 2.8516-8.2828 7.2239-16.867 13.97-25.654 20.568-1.9831 1.4929-3.9567 2.9975-5.9277 4.5063-14.936 11.39-30.267 22.312-46.359 32.012-0.83112 0.50209-1.6622 1.0042-2.5186 1.5215-7.0287 4.1532-7.0287 4.1532-10.294 4.541-1.8208-0.78174-1.8208-0.78174-3.6953-2.0703-0.70641-0.47744-1.4128-0.95487-2.1406-1.4468-0.75539-0.53061-1.5108-1.0612-2.2891-1.6079-0.79406-0.54479-1.5881-1.0896-2.4062-1.6509-2.5011-1.7254-4.9866-3.4715-7.4688-5.2241-0.7628-0.53561-1.5256-1.0712-2.3115-1.623-15.369-10.826-30.265-22.321-44.688-34.377-0.51369-0.42877-1.0274-0.85755-1.5566-1.2993-6.4919-5.4273-12.892-10.934-19.15-16.63-2.8531-2.5761-5.7681-5.0758-8.6992-7.5625-1.5938-1.5078-1.5938-1.5078-3.5938-4.5078 3.2895 1.2603 6.346 2.6926 9.4375 4.375 38.811 19.492 90.91 6.2062 129.73-6.3789 7.5264-2.5277 14.72-5.4673 21.828-8.9961 0.74266-0.36319 1.4853-0.72639 2.2505-1.1006 24.723-12.191 49.197-29.43 66.75-50.899l2.707-3.1992c22.24-26.644 34.558-55.681 34.355-90.363-0.0050254-1.5006-0.0095865-3.0013-0.013672-4.502-0.010922-3.6452-0.02813-7.2904-0.048828-10.936z" fill="#C50419"/>
<path transform="translate(129,161)" d="m0 0c4.1128 1.5423 5.5578 2.3367 8 6 0.50196 6.4336-0.75462 11.941-2.4375 18.125-7.9569 30-1.4487 57.36 11.897 84.725 2.1451 4.558 3.0301 7.9983 2.54 13.15-1 1-1 1-4.4375 1.125-8.1372-1.2039-13.624-8.6594-18.317-14.847-8.6044-11.854-15.489-24.617-20.745-38.278-0.32629-0.84764-0.65259-1.6953-0.98877-2.5686-6.7537-18.358-6.2396-37.117 1.7388-54.994 5.1879-9.5676 12.193-13.36 22.75-12.438z" fill="#EB5873"/>
<path transform="translate(145.62 140.31)" d="m0 0c2.375 1.6875 2.375 1.6875 4.375 4.6875 0.0625 1.9375 0.0625 1.9375-1 4-2.3629 1.545-4.4714 2.8153-7 4-0.75926 0.36223-1.5185 0.72445-2.3008 1.0977-3.3146 1.1081-6.1451 1.2035-9.6367 1.2148-1.777 0.025137-1.777 0.025137-3.5898 0.050781-3.7736-0.39476-6.2106-1.4758-9.4727-3.3633 0.25078-3.6781 0.51497-5.5007 3.125-8.1875 8.1164-5.1169 16.185-6.8726 25.5-3.5z" fill="#F3A0AE"/>
<path transform="translate(141,139)" d="m0 0c6.75 2.625 6.75 2.625 9 6 0.0625 1.9375 0.0625 1.9375-1 4-2.3629 1.545-4.4714 2.8153-7 4-0.75152 0.36609-1.503 0.73219-2.2773 1.1094-3.45 1.1286-6.4134 1.0833-10.035 1.0156-1.2543-0.018047-2.5085-0.036094-3.8008-0.054688-0.95262-0.023203-1.9052-0.046406-2.8867-0.070312v-1c0.87012-0.21656 1.7402-0.43312 2.6367-0.65625 3.9286-1.5696 6.3334-3.826 9.1758-6.8438 0.7338-0.7483 0.7338-0.7483 1.4824-1.5117 2.6794-2.7524 2.6794-2.7524 4.7051-5.9883z" fill="#EE758B"/>
</svg>
